<svg id="screenshot" viewBox="-0.0002499999999940883 0 86.00049999999999 86.00308000000041" width="86.00049999999999" height="86.00308000000041" version="1.1" xmlns:xlink="http://www.w3.org/1999/xlink" xmlns="http://www.w3.org/2000/svg"><g id="shape-c3bff820-c7b8-11eb-b252-c5456ae435bf"><g y="0px" x="0px" version="1.1"><g id="shape-c3c04640-c7b8-11eb-b252-c5456ae435bf"><g><g id="shape-c3c37a90-c7b8-11eb-b252-c5456ae435bf"><path fill-rule="evenodd" stroke="none" overflow="visible" display="inline" visibility="visible" d="m43.00475,0.00020000000006348273C37.44715000000002,0.00020000000006348273,32.910349999999994,4.527200000000107,32.910349999999994,10.094900000000052C32.910349999999994,10.268500000000017,32.91435000000001,10.440900000000056,32.92354999999998,10.612400000000093C29.79245000000003,11.588600000000042,26.85424999999998,13.003900000000044,24.18225000000001,14.778700000000072C23.959949999999992,14.921600000000126,23.798450000000003,15.156100000000038,23.744250000000022,15.414800000000128C23.717150000000004,15.54420000000016,23.716049999999996,15.678900000000112,23.74124999999998,15.808700000000158C23.766149999999982,15.938500000000204,23.81714999999997,16.063200000000165,23.89024999999998,16.173300000000154C24.036549999999977,16.393400000000156,24.273349999999994,16.55140000000017,24.532849999999996,16.601700000000164C24.662649999999985,16.626900000000205,24.797349999999994,16.626000000000204,24.92674999999997,16.59870000000012C25.056150000000002,16.571800000000167,25.180049999999994,16.51900000000012,25.289049999999975,16.444200000000137C27.724350000000015,14.826700000000187,30.392150000000015,13.526800000000094,33.22964999999999,12.612300000000118C34.35395,16.95770000000016,38.31624999999997,20.178900000000112,43.00495000000001,20.178900000000112C47.69274999999999,20.178900000000112,51.64765,16.95810000000006,52.770550000000014,12.614500000000135C55.60735,13.52110000000016,58.275949999999966,14.821800000000167,60.707449999999994,16.451700000000187C60.81614999999999,16.527300000000196,60.93984999999998,16.580900000000156,61.069349999999986,16.608600000000138C61.19875000000002,16.63630000000012,61.333650000000034,16.637900000000172,61.46365000000003,16.613600000000133C61.723749999999995,16.56450000000018,61.961749999999995,16.40750000000014,62.10915,16.18760000000009C62.18285000000003,16.07770000000005,62.234350000000006,15.953000000000088,62.25985000000003,15.823100000000068C62.28525000000002,15.693300000000022,62.28454999999997,15.55840000000012,62.25785000000002,15.428700000000049C62.20434999999998,15.169500000000085,62.04325,14.934300000000007,61.82095000000004,14.790700000000015C59.15015,13.000400000000013,56.208849999999984,11.582099999999969,53.07655,10.614100000000008C53.08555000000001,10.442000000000007,53.089650000000006,10.26890000000003,53.089650000000006,10.094699999999989C53.089650000000006,4.528299999999945,48.56245000000001,0,43.00495000000001,0Z" style="text-indent: 0px; text-transform: none; direction: ltr; baseline-shift: baseline; color: rgb(0, 0, 0); fill: rgb(0, 0, 0); fill-opacity: 1;"/></g><g id="shape-c3c59d70-c7b8-11eb-b252-c5456ae435bf"><path fill-rule="evenodd" stroke="none" overflow="visible" display="inline" visibility="visible" d="m15.584450000000004,23.744600000000105C15.422849999999983,23.748600000000124,15.262350000000026,23.792400000000157,15.12115,23.871300000000133C14.980050000000006,23.950100000000134,14.858450000000005,24.06380000000013,14.770350000000008,24.199300000000108C12.984649999999988,26.862800000000107,11.57774999999998,29.7967000000001,10.602250000000026,32.92370000000005C10.433949999999982,32.915700000000015,10.264549999999986,32.91090000000008,10.094150000000013,32.91090000000008C4.5263499999999794,32.91090000000008,-0.0002499999999940883,37.447700000000054,-0.0002499999999940883,43.00518000000011C-0.0002499999999940883,48.56278000000009,4.527750000000026,53.08988000000011,10.094150000000013,53.08988000000011C10.259650000000022,53.08988000000011,10.424350000000004,53.08988000000011,10.587949999999978,53.077880000000164C11.563949999999977,56.21788000000015,12.978949999999998,59.164180000000215,14.770050000000026,61.84078000000011C14.913650000000018,62.062680000000114,15.148750000000007,62.223380000000134,15.40764999999999,62.276780000000144C15.537149999999997,62.30378000000019,15.671949999999981,62.30378000000019,15.801649999999995,62.276780000000144C15.931350000000009,62.25178000000017,16.055949999999996,62.199780000000146,16.165750000000003,62.12648000000013C16.385550000000023,61.97948000000008,16.54264999999998,61.741980000000126,16.59205000000003,61.48228000000017C16.61685,61.35248000000013,16.61545000000001,61.2176800000002,16.58805000000001,61.08838000000014C16.560749999999985,60.9590800000002,16.507450000000006,60.835280000000125,16.43225000000001,60.726580000000126C14.803150000000016,58.29198000000008,13.503750000000025,55.62078000000008,12.589150000000018,52.77528000000018C16.945449999999994,51.66118000000017,20.17885000000001,47.700280000000134,20.17885000000001,43.00338000000022C20.17885000000001,38.31120000000021,16.952850000000012,34.34650000000022,12.602550000000008,33.22560000000021C13.516549999999995,30.390900000000215,14.808750000000032,27.731900000000223,16.43164999999999,25.311300000000188C16.535950000000014,25.16040000000021,16.597550000000012,24.980400000000145,16.607550000000003,24.797400000000152C16.617549999999994,24.614300000000185,16.57605000000001,24.428600000000188,16.488850000000014,24.267300000000205C16.401749999999993,24.106000000000222,16.26925,23.969500000000153,16.11065000000002,23.87750000000017C15.952049999999986,23.785500000000184,15.767749999999978,23.73830000000021,15.584450000000004,23.742800000000216Z" style="text-indent: 0px; text-transform: none; direction: ltr; baseline-shift: baseline; color: rgb(0, 0, 0); fill: rgb(0, 0, 0); fill-opacity: 1;"/></g><g id="shape-c3c79940-c7b8-11eb-b252-c5456ae435bf"><path fill-rule="evenodd" stroke="none" overflow="visible" display="inline" visibility="visible" d="m70.39695,23.744300000000067C70.21614999999997,23.745300000000043,70.03575000000001,23.795900000000074,69.88114999999999,23.889800000000037C69.72665,23.983800000000087,69.59845000000001,24.120499999999993,69.51454999999999,24.280700000000024C69.43074999999999,24.44100000000003,69.39155,24.624300000000062,69.40244999999999,24.8048C69.41335000000004,24.985300000000052,69.47444999999999,25.162500000000023,69.57695000000001,25.311500000000024C71.19885,27.739900000000034,72.49005,30.397000000000048,73.40384999999998,33.22840000000008C69.05525,34.350400000000036,65.83074999999997,38.31420000000003,65.83074999999997,43.00518000000011C65.83074999999997,47.69778000000008,69.05234999999999,51.66368000000011,73.41255000000001,52.77898000000016C72.49855000000002,55.61948000000018,71.20315,58.29018000000019,69.57664999999997,60.72988000000021C69.50175000000002,60.838780000000156,69.44875000000002,60.96258000000023,69.42165,61.09198000000026C69.39465000000001,61.221280000000206,69.39355,61.35598000000027,69.41865000000001,61.48578000000032C69.46865000000003,61.74528000000032,69.62615,61.98238000000026,69.84604999999999,62.12888000000032C69.95595000000003,62.2018800000003,70.08055000000002,62.253380000000334,70.21024999999997,62.278580000000375C70.34005000000002,62.30358000000035,70.47474999999997,62.302580000000376,70.60405000000003,62.278580000000375C70.86284999999998,62.2245800000004,71.09755000000001,62.06388000000038,71.24095,61.8418800000004C73.02825000000001,59.16088000000036,74.44015000000002,56.21658000000036,75.41555,53.08248000000037C75.58454999999998,53.092480000000364,75.75144999999998,53.092480000000364,75.91555,53.092480000000364C81.47314999999998,53.092480000000364,86.00025,48.565380000000346,86.00025,43.007780000000366C86.00025,37.45030000000031,81.47455000000002,32.91350000000034,75.91555,32.91350000000034C75.74424999999997,32.91350000000034,75.57364999999999,32.91750000000036,75.40435000000002,32.92630000000031C74.42894999999999,29.80300000000034,73.02305000000001,26.872800000000325,71.24025,24.203500000000304C71.14965000000001,24.063600000000292,71.02355,23.946900000000255,70.87694999999997,23.867600000000266C70.73045000000002,23.7882000000003,70.56385,23.746300000000247,70.39715000000001,23.74690000000021Z" style="text-indent: 0px; text-transform: none; direction: ltr; baseline-shift: baseline; color: rgb(0, 0, 0); fill: rgb(0, 0, 0); fill-opacity: 1;"/></g><g id="shape-c3c96e00-c7b8-11eb-b252-c5456ae435bf"><path fill-rule="evenodd" stroke="none" overflow="visible" display="inline" visibility="visible" d="m43.00475,65.83118000000013C38.30414999999999,65.83118000000013,34.33425,69.05628000000024,33.228549999999984,73.42618000000016C30.391149999999982,72.5120800000002,27.725750000000005,71.21788000000015,25.289750000000026,69.59678000000008C25.18085000000002,69.52178000000004,25.05695000000003,69.46947999999998,24.927750000000003,69.44268000000011C24.798450000000003,69.41568000000007,24.663850000000025,69.41468000000009,24.534350000000018,69.44268000000011C24.275149999999996,69.49268000000006,24.03845000000001,69.65058000000022,23.892150000000015,69.87038000000007C23.819050000000004,69.98028,23.767949999999985,70.10478000000012,23.742950000000008,70.2343800000001C23.71785,70.36398000000008,23.71875,70.49858000000017,23.745949999999993,70.62788C23.799649999999986,70.88637999999992,23.960350000000005,71.12087999999994,24.182050000000004,71.2642800000001C26.857050000000015,73.04448000000002,29.793949999999995,74.4558800000002,32.92425000000003,75.43148000000019C32.91624999999999,75.5935800000002,32.91075000000001,75.75588000000016,32.91075000000001,75.9183800000003C32.91075000000001,81.47718000000032,37.44754999999998,86.00308000000041,43.005150000000015,86.00308000000041C48.56265000000002,86.00308000000041,53.08985000000001,81.47588000000042,53.08985000000001,75.9183800000003C53.08985000000001,75.75498000000039,53.08584999999999,75.5926800000002,53.07794999999999,75.43118000000027C56.20724999999999,74.46358000000032,59.14915000000002,73.04718000000025,61.819849999999974,71.26338000000032C62.04135000000002,71.11968000000024,62.201750000000004,70.88478000000032,62.25504999999998,70.62618000000043C62.28174999999999,70.49688000000037,62.28244999999998,70.36228000000051,62.25704999999999,70.23268000000053C62.23174999999998,70.10308000000055,62.18045000000001,69.97858000000042,62.10704999999996,69.86888000000044C61.96044999999998,69.64928000000054,61.72344999999996,69.49198000000047,61.46415000000002,69.44218000000046C61.334450000000004,69.41718000000037,61.19984999999997,69.41818000000058,61.07065,69.44218000000046C60.941449999999975,69.4691800000005,60.81764999999996,69.52218000000039,60.708849999999984,69.59688000000051C58.27824999999996,71.22038000000043,55.61054999999999,72.52048000000059,52.778549999999996,73.42658000000051C51.66654999999997,69.06718000000046,47.70414999999997,65.83038000000056,43.00504999999998,65.83038000000056Z" style="text-indent: 0px; text-transform: none; direction: ltr; baseline-shift: baseline; color: rgb(0, 0, 0); fill: rgb(0, 0, 0); fill-opacity: 1;"/></g></g></g></g></g></svg>